<svg xmlns="http://www.w3.org/2000/svg" version="1.1" xmlns:xlink="http://www.w3.org/1999/xlink" width="2000" height="1500" viewBox="0 0 2000 1500"><rect width="2000" height="1500" x="0" y="0" id="background" stroke="transparent" fill="#ffffff"></rect><svg xml:space="preserve" width="1500" height="1125" data-version="2" data-id="lg_H5GZ2HJ9VvFYxuIb2j" viewBox="0 0 403 362" x="250" y="187.5"><rect width="100%" height="100%" fill="transparent"></rect><path d="M61.92 353.57H5.85q-1.93 0-1.93-2.41l.96-340.07q0-1.94 1.94-1.94h100.06q26.83 0 49.31 13.05 22.47 13.06 35.89 35.05 13.41 22 13.41 49.79 0 18.13-5.56 32.87-5.56 14.75-12.93 24.9-7.37 10.15-13.41 14.98 26.83 29.73 26.83 69.85l.48 101.52q0 2.41-2.42 2.41h-56.07q-1.93 0-1.93-1.45V249.64q0-17.88-12.57-30.93-12.57-13.06-30.94-13.06H64.34l-.48 145.51q0 2.41-1.94 2.41m44.96-285.2H64.34v77.83h42.54q15.23 0 27.19-11.36t11.96-27.8q0-15.71-11.6-27.19t-27.55-11.48"></path><path d="M301.91 358.41q-26.83 0-49.06-13.54-22-13.53-34.93-36.37-12.93-22.84-12.93-50.88l.48-154.45q0-27.55 12.57-49.79 12.57-22.47 34.69-36.13 22.11-13.66 49.18-13.66 27.56 0 49.07 13.3 21.75 13.29 34.68 35.89t12.93 50.39v22.72q0 1.94-1.93 1.94h-55.59q-1.94 0-1.94-1.94v-22.72q0-16.43-10.63-28.27-10.63-11.85-26.59-11.85-17.64 0-27.07 12.09-9.42 12.08-9.42 28.03v154.45q0 18.13 10.63 29.61 10.64 11.48 25.86 11.48 15.96 0 26.59-12.69 10.63-12.69 10.63-28.4v-22.96q0-1.94 1.94-1.94h56.07q1.94 0 1.94 1.94v22.96q0 27.8-13.06 50.76-13.29 22.72-35.04 36.37-21.76 13.66-49.07 13.66"></path></svg></svg>